<svg width="405" height="219" viewBox="0 0 405 219" fill="none" xmlns="http://www.w3.org/2000/svg">
<g clip-path="url(#clip0)">
<path d="M345 109.7C335.7 97.3 314.8 101.7 314.8 101.7C287.2 106.6 268.6 117.4 265 119.7C264.956 119.721 264.92 119.756 264.899 119.8C264.878 119.844 264.873 119.894 264.885 119.941C264.897 119.989 264.925 120.03 264.964 120.059C265.003 120.088 265.051 120.103 265.1 120.1C279.1 120.1 285.9 126.1 288.3 129C288.639 129.412 288.87 129.902 288.975 130.425C289.08 130.948 289.054 131.489 288.9 132C275.4 172 230.9 169.7 230.9 169.7H186.7V49H230.9C276 49.6 288.4 76.6 291.7 94.3L291.9 95.3C291.9 95.5 292.1 95.6 292.3 95.5C295.7 94.3 326 84.6 344.8 94.6C345 94.7 345.2 94.5 345.2 94.3C344.546 88.1381 343.341 82.0471 341.6 76.1C332.4 44.7 306.9 1.9 230.9 0H133.9V169.7H52.7V0.1H0V218.7H235.7C235.7 218.7 342.7 218.7 346 112.1C346.016 111.862 345.982 111.624 345.9 111.4C345.701 110.785 345.396 110.21 345 109.7V109.7Z" fill="#010101"/>
<path d="M402.6 91.4C402.296 91.3838 401.992 91.4175 401.7 91.5C398.856 92.4427 395.894 92.9813 392.9 93.1C391.119 93.1255 389.373 92.6018 387.9 91.6C384.4 89.2 376.1 84.6 369.2 89.2C369.2 89.2 359.7 95.9 342.4 97.1C342.351 97.0974 342.303 97.1118 342.264 97.1408C342.225 97.1698 342.197 97.2115 342.185 97.2588C342.173 97.3061 342.178 97.356 342.199 97.4C342.22 97.444 342.256 97.4794 342.3 97.5C344.7 98.9 353.9 104.8 354.5 109.9V110.5C354.524 111.537 354.457 112.574 354.3 113.6C354.295 113.667 354.305 113.734 354.329 113.796C354.353 113.859 354.389 113.916 354.437 113.963C354.484 114.011 354.541 114.047 354.603 114.071C354.666 114.095 354.733 114.104 354.8 114.1C355.9 113.9 358.8 112.9 364.5 107.4C364.599 107.291 364.735 107.221 364.881 107.202C365.028 107.184 365.177 107.219 365.3 107.3C368.079 108.726 371.178 109.415 374.3 109.3C375.512 109.132 376.713 108.898 377.9 108.6C379.239 108.257 380.519 107.718 381.7 107C382.889 106.332 383.808 105.272 384.3 104C384.412 103.782 384.48 103.544 384.5 103.3C384.5 103.2 384.7 103.2 384.7 103.3C384.7 103.6 384.8 104 384.8 104.4C384.798 104.495 384.821 104.589 384.866 104.672C384.912 104.756 384.978 104.826 385.058 104.877C385.139 104.927 385.231 104.956 385.326 104.96C385.421 104.964 385.515 104.943 385.6 104.9C387.2 104.1 390.2 102.8 392.6 101.3C396.4 99 400.7 96.4 403.4 94C403.719 93.7362 403.961 93.3905 404.1 93C404.4 92.6 404.3 91.7 402.6 91.4Z" fill="#010101"/>
</g>
<defs>
<clipPath id="clip0">
<rect width="404.23" height="218.7" fill="white"/>
</clipPath>
</defs>
</svg>
